<svg width="76" height="76" viewBox="0 0 76 76" fill="none" xmlns="http://www.w3.org/2000/svg">
<circle cx="38" cy="38" r="37" stroke="white" stroke-width="2"/>
<path fill-rule="evenodd" clip-rule="evenodd" d="M30.8927 21.5343L30.8926 21.5342C30.6327 21.222 30.3731 20.9102 30.1186 20.5941L30.1203 20.5974C29.909 20.3365 29.7312 20.0605 29.6994 19.7037C29.6441 19.1011 29.9425 18.65 30.3148 18.246C30.9134 17.5963 31.6662 17.1586 32.4543 16.7782C32.6287 16.6941 32.7092 16.8018 32.7779 16.9365C32.8908 17.1554 33.0034 17.3746 33.116 17.5939C33.303 17.9578 33.49 18.3219 33.6783 18.6853C33.9969 19.2979 34.3188 19.9088 34.6406 20.5197L34.6407 20.5198L34.6408 20.5199L34.6408 20.52C34.6456 20.5289 34.6497 20.5384 34.6538 20.5481C34.6685 20.5825 34.684 20.6191 34.7364 20.6361C34.6352 20.3078 34.534 19.9826 34.4332 19.6586L34.4329 19.6577C34.3684 19.4505 34.3041 19.2438 34.2401 19.0371C33.9182 17.9997 33.6249 16.9545 33.3318 15.9096L33.3317 15.9095L33.3313 15.908C33.2627 15.6633 33.194 15.4187 33.125 15.1741C33.0781 15.0092 33.1116 14.9048 33.2457 14.7954C33.9215 14.2484 34.7213 14.0094 35.5479 13.8208C36.5506 13.5919 37.5718 13.5145 38.5913 13.5364C40.1238 13.5701 41.643 13.7283 43.0883 14.2938C43.4455 14.4319 43.7909 14.5951 44.1028 14.824C44.2235 14.9132 44.247 15.0008 44.1816 15.1438C43.8224 15.9215 43.4955 16.713 43.1688 17.5043C42.9496 18.0352 42.7304 18.5661 42.5015 19.0926C42.4977 19.1011 42.4937 19.1095 42.4896 19.118L42.4896 19.1181C42.4612 19.1777 42.4302 19.2427 42.4596 19.3502C42.4886 19.3125 42.5163 19.2782 42.5427 19.2454L42.5429 19.2452L42.5429 19.2452L42.5429 19.2452C42.5897 19.1873 42.6323 19.1344 42.6708 19.0775C43.1146 18.4197 43.59 17.7847 44.0656 17.1493L44.143 17.0459C44.3057 16.8287 44.3174 16.8271 44.532 16.9954C44.9277 17.3051 45.3117 17.6215 45.6286 18.0188C46.3563 18.9311 46.3966 19.8046 45.6823 20.7287C45.3109 21.2096 44.9133 21.6713 44.516 22.1326L44.5159 22.1327L44.5155 22.1331C44.3623 22.311 44.2091 22.4889 44.0575 22.6678C43.768 23.0101 43.478 23.352 43.1881 23.6939C42.6084 24.3776 42.0286 25.0613 41.4518 25.748C41.3194 25.9063 41.1986 25.9584 40.9874 25.8945C40.7454 25.8206 40.4968 25.7661 40.2484 25.7116C40.1232 25.6842 39.9981 25.6567 39.874 25.6269C39.6007 25.5595 39.5772 25.5023 39.6895 25.2498C39.8673 24.8543 40.0417 24.4587 40.216 24.0632C40.2195 24.0556 40.2234 24.048 40.2273 24.0404C40.2479 24 40.2699 23.957 40.2445 23.9032C40.177 23.9231 40.141 23.9738 40.1051 24.0243C40.0893 24.0466 40.0735 24.0688 40.0551 24.0884C39.9017 24.2524 39.748 24.4162 39.5944 24.5799L39.594 24.5803C39.3616 24.828 39.1292 25.0756 38.8981 25.3239C38.7923 25.4366 38.6692 25.4146 38.541 25.3916L38.5292 25.3895C37.6724 25.2397 36.8156 25.2347 35.9621 25.4097C35.5379 25.4972 35.1321 25.647 34.7532 25.8558C34.5905 25.945 34.5 25.913 34.3876 25.775C33.3632 24.5245 32.3338 23.2774 31.3044 22.0303L31.3041 22.0298C31.1673 21.8641 31.03 21.6991 30.8927 21.5343ZM51.0412 37.9631C51.9953 39.6059 52.7951 41.3227 53.449 43.112L53.4474 43.1053C54.1902 45.1386 54.5892 47.2173 54.3293 49.387C54.1868 50.5804 53.8179 51.7064 53.1523 52.713C52.1932 54.1605 50.8216 55.0392 49.1884 55.5391C48.2343 55.8303 47.2534 55.9767 46.2641 56.0828L45.9882 56.113C45.182 56.2015 44.3775 56.2898 43.5662 56.305C43.384 56.3083 43.2018 56.3222 43.0196 56.336C42.9285 56.3429 42.8374 56.3498 42.7463 56.3554C42.8115 56.393 42.8826 56.4006 42.9533 56.4082C43.0188 56.4153 43.084 56.4223 43.1437 56.4531H33.5928C33.6096 56.3252 33.5375 56.3016 33.4302 56.2999C32.0603 56.273 30.6954 56.1888 29.3389 56.0037C27.9572 55.8151 26.5991 55.529 25.3264 54.9365C24.3757 54.4938 23.5289 53.9047 22.9303 53.0126C22.2261 51.9623 21.9326 50.7655 21.7348 49.5385C21.7314 49.5186 21.7294 49.4981 21.7274 49.4777C21.7188 49.3878 21.7104 49.3011 21.5805 49.286V46.3522C21.6272 46.4357 21.6292 46.5276 21.6313 46.6274C21.6334 46.7245 21.6356 46.8292 21.6794 46.9413C21.6826 46.8944 21.6858 46.8566 21.6886 46.8243L21.6886 46.8242L21.6886 46.8242C21.693 46.7719 21.6962 46.734 21.6962 46.6955C21.7029 45.8169 21.8723 44.9601 22.1053 44.1185C22.8062 41.5954 23.9028 39.2524 25.3214 37.0609C26.9612 34.5276 28.8375 32.193 31.0877 30.1732C32.0787 29.2828 33.0764 28.4041 34.1931 27.6753C34.7297 27.3252 35.2964 27.0273 35.8883 26.7798C35.8983 26.7758 35.9087 26.7709 35.9195 26.7659C35.9717 26.7414 36.0311 26.7136 36.0811 26.7681C36.1107 26.8018 36.0875 26.8398 36.0659 26.8752C36.0606 26.884 36.0553 26.8927 36.051 26.901C35.9254 27.1392 35.799 27.3773 35.6725 27.6153C35.4327 28.067 35.1927 28.519 34.9577 28.9731C34.8988 29.0872 34.8347 29.1989 34.7704 29.3108L34.7704 29.3109C34.6555 29.5111 34.5401 29.7121 34.453 29.9291C34.5055 29.9412 34.5231 29.9141 34.5395 29.889L34.5452 29.8803C35.1124 29.0837 35.7022 28.3042 36.292 27.5247L36.292 27.5246L36.2923 27.5242C36.4888 27.2645 36.6853 27.0048 36.881 26.7445C36.9749 26.6199 37.0755 26.5593 37.2281 26.5593C37.602 26.5644 37.9776 26.5644 38.3532 26.5593C38.5108 26.5577 38.608 26.6166 38.6784 26.763C39.2234 27.8941 39.7751 29.0219 40.3267 30.1496C40.3304 30.1576 40.3337 30.1661 40.3371 30.1748C40.3537 30.2169 40.372 30.2636 40.4458 30.286C40.4117 30.1173 40.3783 29.9497 40.3451 29.7829L40.3448 29.7812C40.2671 29.391 40.1904 29.0053 40.1071 28.6213C39.9779 28.0221 39.8388 27.4228 39.6996 26.8253C39.6661 26.6805 39.6979 26.6233 39.8539 26.6721C39.9121 26.6903 39.9705 26.708 40.0288 26.7258L40.0291 26.7259C40.3165 26.8132 40.603 26.9003 40.8733 27.0374C42.2349 27.7292 43.3952 28.6953 44.4868 29.7457C45.9103 31.1158 47.2031 32.6021 48.4171 34.1607C49.3661 35.3777 50.2666 36.6283 51.0412 37.9631ZM41.4775 40.8529H43.4951V39.0499H41.2628C41.1341 38.685 40.9838 38.3845 40.7906 38.1055H43.4951V36.2596H33.5786V38.1699H35.768C36.8197 38.1699 37.571 38.4919 38.0217 39.0499H33.5786V40.8529H38.451C38.2793 42.3125 36.97 42.8062 35.5963 42.8062H33.5786V45.017H35.3602H35.489L39.4169 50.3831H42.8727L38.5369 44.5019C40.1252 43.9223 41.3487 42.7847 41.4775 40.8529Z" fill="white"/>
</svg>
