<svg width="76" height="76" viewBox="0 0 76 76" fill="none" xmlns="http://www.w3.org/2000/svg">
<circle cx="38" cy="38" r="37" stroke="white" stroke-width="2"/>
<path d="M24.0018 38.4795C24.0018 36.6113 23.998 34.7432 24.0018 32.8759C24.0176 26.2041 28.5083 20.627 35.1879 19.3149C40.7184 18.2284 45.3575 19.9742 48.9474 24.2291C50.7639 26.3831 51.7318 28.9077 51.9064 31.7045C52.0856 34.5715 51.9456 37.4422 51.982 40.3111C51.9997 41.7081 52.01 43.106 51.9755 44.5021C51.8158 51.0717 47.2804 56.0206 41.7088 57.5071C33.994 59.566 26.171 54.9833 24.3658 47.3327C24.1278 46.3237 24.0148 45.2983 24.0074 44.2656C23.9934 42.3372 24.0036 40.4079 24.0036 38.4795H24.0018ZM32.0637 38.4932C32.0637 40.3303 32.0563 42.1683 32.0693 44.0054C32.0721 44.4583 32.102 44.9185 32.1841 45.3641C32.8749 49.1323 37.1313 51.2333 40.6167 49.4957C42.8662 48.3736 43.9032 46.4817 43.92 44.0474C43.9396 41.1621 43.9322 38.2777 43.92 35.3924C43.9154 34.3003 43.9686 33.2092 43.8566 32.1163C43.6111 29.7176 41.8777 27.6942 39.5087 27.0907C37.079 26.4716 34.5298 27.4039 33.1241 29.4099C32.3764 30.4764 32.0768 31.667 32.0684 32.9371C32.0563 34.7897 32.0656 36.6424 32.0647 38.495L32.0637 38.4932Z" fill="white"/>
</svg>
