<svg width="76" height="76" viewBox="0 0 76 76" fill="none" xmlns="http://www.w3.org/2000/svg">
<circle cx="38" cy="38" r="37" stroke="white" stroke-width="2"/>
<path fill-rule="evenodd" clip-rule="evenodd" d="M65.8177 19.2102C66.3289 19.0209 66.758 19.198 66.9381 19.6543L66.9393 19.6556C67.1146 20.0985 66.9043 20.5306 66.3858 20.7272C64.7625 21.3437 63.1357 21.9517 61.5064 22.5548C61.284 22.6373 61.1293 22.7369 61.0798 22.9953C60.5987 25.5269 59.3719 27.6458 57.559 29.4492C56.8619 30.1428 56.1714 30.8426 55.4809 31.5424L55.4805 31.5429L55.4803 31.543C54.7164 32.3173 53.9525 33.0915 53.18 33.8569C52.8972 34.1361 52.844 34.38 52.9407 34.7598C54.1904 39.6749 53.5136 44.3083 50.6914 48.5279C47.9139 52.682 43.9991 55.1565 39.0533 55.8398C30.0705 57.0789 21.8239 51.0024 20.249 42.0498C18.9981 34.9407 22.5491 27.6652 28.9054 24.3206C29.1145 24.2101 29.2958 24.0742 29.4626 23.908C31.4351 21.9286 33.4088 19.9505 35.385 17.976C37.0408 16.3218 38.6967 14.6677 40.3586 13.0209C41.4331 11.9554 42.626 11.033 43.877 10.1932C44.6745 9.65828 45.5959 9.39827 46.5106 9.14013C46.5981 9.11542 46.6856 9.09073 46.7729 9.06583C49.6009 8.26032 52.4304 7.45882 55.2596 6.65741L55.2601 6.65729L55.2623 6.65664L57.2193 6.10225L57.2434 6.09536C57.3759 6.05744 57.5104 6.0189 57.6472 6.00517C58.069 5.96026 58.4123 6.21148 58.5198 6.62652C58.6117 6.98331 58.4256 7.37045 58.0557 7.527C57.8695 7.60601 57.6719 7.66054 57.475 7.71489L57.4748 7.71496L57.4747 7.71497C57.4237 7.72904 57.3728 7.74311 57.3221 7.75758C56.3628 8.03136 55.4041 8.30673 54.4453 8.58209L54.4452 8.58211L54.4443 8.58237C51.842 9.32977 49.2397 10.0771 46.6291 10.7928C45.2258 11.1775 44.0945 11.976 42.991 12.8595C41.8284 13.7892 40.7879 14.8475 39.7475 15.9056L39.7475 15.9056L39.7474 15.9056L39.7474 15.9057C39.3796 16.2797 39.0118 16.6538 38.6387 17.0221C37.3203 18.324 36.0132 19.6373 34.7061 20.9505C34.1977 21.4612 33.6894 21.972 33.1804 22.482C33.1329 22.5297 33.0878 22.5792 33.0257 22.6474L33.0256 22.6475C32.9881 22.6887 32.9445 22.7366 32.8903 22.7951C34.1546 22.5281 35.3246 22.3667 36.5139 22.3521C37.928 22.3352 39.3216 22.4832 40.6934 22.8194C40.94 22.8801 41.1055 22.8339 41.2796 22.6555C41.9903 21.9274 42.701 21.2005 43.4322 20.4929C45.0361 18.9408 47.3072 18.7684 48.9739 20.1131C50.3663 21.2356 50.8026 22.7417 50.4557 24.4686C50.2091 25.6944 49.6628 26.7684 48.7503 27.6616C47.3956 28.9888 46.0606 30.3373 44.726 31.6854C44.3448 32.0704 43.9637 32.4555 43.5821 32.8399C42.6188 33.8096 42.3565 35.1008 42.875 36.255C43.715 38.1251 46.1432 38.602 47.6033 37.1591C48.6267 36.147 49.6412 35.1255 50.6556 34.1041L50.6559 34.1038L50.6562 34.1035C51.4637 33.2903 52.2713 32.4772 53.0833 31.6688C53.2338 31.5189 53.3845 31.369 53.5352 31.2192C54.7746 29.9865 56.0146 28.7533 57.1806 27.4516C58.515 25.9613 59.2873 24.1859 59.5641 22.2004C59.6282 21.7393 59.8397 21.4407 60.2833 21.2769C61.3707 20.8753 62.4565 20.4682 63.5423 20.0611C64.3006 19.7769 65.0588 19.4926 65.8177 19.2102ZM48.9316 23.5318C48.9437 23.2102 48.9002 22.8958 48.8083 22.5888L48.8095 22.5876C48.7442 22.3728 48.6608 22.3388 48.4904 22.5123C47.7108 23.306 46.9276 24.0949 46.136 24.8752C45.9498 25.0584 46.0199 25.141 46.1928 25.2635C46.2543 25.3073 46.3161 25.3508 46.378 25.3943C46.7263 25.6396 47.0752 25.8854 47.3893 26.1689C47.6516 26.4067 47.8184 26.38 47.9973 26.1143C48.5231 25.3315 48.9135 24.499 48.9316 23.5318ZM43.5574 22.6566C43.361 22.8573 43.1644 23.058 42.9645 23.2551V23.2538C42.8182 23.3983 42.8206 23.4784 43.0237 23.5633C43.4395 23.7381 43.8504 23.9274 44.2565 24.1252C44.4426 24.2162 44.572 24.1774 44.711 24.0378C45.281 23.4624 45.8525 22.8889 46.4239 22.3155C46.7503 21.988 47.0766 21.6605 47.4026 21.3327C47.4397 21.2964 47.4728 21.2556 47.5036 21.2178C47.5149 21.2038 47.526 21.1902 47.5368 21.1774C47.503 21.0642 47.4188 21.0383 47.3416 21.0145C47.3278 21.0102 47.3142 21.006 47.3011 21.0014C46.3342 20.6592 45.4591 20.8607 44.7122 21.5281C44.3117 21.8864 43.9347 22.2714 43.5575 22.6566L43.5574 22.6566ZM38.8744 54.2197C44.3351 53.4272 48.2572 50.3835 50.5983 45.3617H50.6007C51.7344 42.9321 52.0958 40.3423 51.8432 37.6736C51.803 37.2516 51.7275 36.8331 51.6519 36.4145C51.6184 36.2288 51.5848 36.043 51.5544 35.8569C51.5205 35.6482 51.4456 35.6057 51.2812 35.7744C51.0263 36.0363 50.7679 36.295 50.5094 36.5538C50.2397 36.8238 49.9699 37.0939 49.7039 37.3678C49.4622 37.6166 49.5371 38.2768 49.8248 38.3872C50.2829 38.5632 50.4388 38.8884 50.4339 39.3617C50.4073 41.7331 49.7861 43.937 48.633 46.0025C45.9873 50.7403 40.4033 53.5413 35.0683 52.7985C31.7977 52.3435 29.0045 50.9442 26.7661 48.5C23.9584 45.4333 22.7074 41.7877 23.2078 37.6639C23.8363 32.4771 26.6259 28.7793 31.3541 26.5888C33.0064 25.823 34.7674 25.482 36.5864 25.4504C37.0493 25.4431 37.4034 25.6009 37.5569 26.0669C37.6162 26.2465 37.7443 26.2672 37.8966 26.2829C40.4432 26.5402 42.7348 27.4383 44.7508 29.0281C44.9201 29.1616 45.0313 29.1082 45.1582 28.9783C45.3957 28.7356 45.6356 28.4957 45.8754 28.256L45.8757 28.2558C45.9823 28.1492 46.0888 28.0426 46.1952 27.9358C46.4401 27.6883 46.4297 27.4601 46.1638 27.2514C43.408 25.0864 40.28 24.0002 36.7834 23.9881C35.7621 23.965 34.7553 24.0694 33.7581 24.2769C25.4184 26.0087 20.1523 34.1664 22.0016 42.5086C23.6671 50.0182 30.7933 55.392 38.8744 54.2197ZM44.4753 34.3084C44.1006 33.9443 44.0704 33.5086 44.3701 33.1628L44.3713 33.164C44.6747 32.8132 45.1654 32.7732 45.5425 33.1166C46.2737 33.7817 46.9893 34.4662 47.7012 35.153C47.961 35.4043 48.036 35.7198 47.8861 36.062C47.7495 36.3715 47.5066 36.5317 47.0932 36.5438C46.9022 36.5596 46.698 36.4322 46.5155 36.2586C46.3173 36.0696 46.1188 35.8808 45.9202 35.692C45.4368 35.2325 44.9533 34.7729 44.4753 34.3084ZM38.1688 38.228H40V36.5684H37.974C37.8571 36.2325 37.7208 35.9559 37.5455 35.6991H40V34H31V35.7584H32.987C33.9416 35.7584 34.6234 36.0547 35.0325 36.5684H31V38.228H35.4221C35.2662 39.5714 34.0779 40.0258 32.8312 40.0258H31V42.0608H32.6169H32.7338L36.2987 47H39.4351L35.5 41.5866C36.9416 41.0532 38.0519 40.0061 38.1688 38.228Z" fill="white"/>
</svg>
