<svg width="76" height="76" viewBox="0 0 76 76" fill="none" xmlns="http://www.w3.org/2000/svg">
<circle cx="38" cy="38" r="37" stroke="white" stroke-width="2"/>
<path d="M55.9978 28.078C55.9978 27.9204 55.986 27.7622 55.9516 27.6083C55.7361 26.6352 54.9592 26 53.9852 26C50.8022 26 47.6198 26 44.4368 26C44.3295 26 44.2233 26.0032 44.1166 26.0179C42.982 26.1729 42.2318 27.2783 42.4674 28.408C42.6603 29.3353 43.4823 29.989 44.3988 29.9827C46.0059 29.9711 47.6131 29.9795 49.2202 29.98C49.2567 29.98 49.2946 29.97 49.3311 29.9895C49.3213 30.0284 49.2895 30.0468 49.2659 30.0709C48.8749 30.4692 48.4824 30.8648 48.0924 31.2642C44.9479 34.4818 41.8034 37.7 38.6588 40.9176C38.5675 41.0112 38.567 41.0117 38.4772 40.9187C38.1447 40.5751 37.8137 40.2299 37.4802 39.8873C36.4719 38.8527 35.4635 37.8187 34.4542 36.7852C33.6814 35.9934 32.9127 35.1969 32.1312 34.4145C31.8023 34.0851 31.3861 33.9228 30.9264 33.9028C30.3368 33.877 29.837 34.0919 29.4203 34.5186C25.5692 38.4608 24.4453 39.61 20.5952 43.5517C20.4793 43.6704 20.3751 43.7992 20.2874 43.9426C20.1309 44.1985 20.0441 44.4785 20 44.7749V45.2199C20.0446 45.5183 20.1293 45.8026 20.2925 46.0569C20.6486 46.6138 21.1469 46.9306 21.7985 46.9879C21.817 46.9895 21.835 46.9958 21.8529 47H22.0418C22.0992 46.9748 22.1613 46.9884 22.2214 46.9795C22.6806 46.9075 23.0619 46.6911 23.3882 46.3553C24.6264 45.0817 23.1409 46.6037 24.3817 45.3332C26.4979 43.1659 28.6147 40.9991 30.7314 38.8317C30.7971 38.7645 30.8626 38.7645 30.9279 38.8317C32.2662 40.2036 33.6034 41.576 34.9422 42.9473C35.7104 43.7344 36.4744 44.5257 37.2508 45.3049C37.6233 45.679 38.0908 45.8508 38.6096 45.8376C39.1638 45.8235 39.6256 45.5886 40.0181 45.1845C41.6715 43.4827 43.331 41.7877 44.9879 40.0896C46.4375 38.6037 47.8856 37.1162 49.3347 35.6304C50.225 34.7172 51.1163 33.8045 52.0076 32.8924C52.0307 32.8688 52.0476 32.8341 52.0871 32.8294C52.1046 32.8677 52.0959 32.9066 52.0964 32.9439C52.0969 34.5795 52.0948 36.2146 52.0979 37.8503C52.0989 38.4019 52.277 38.8858 52.6562 39.2862C53.2335 39.8962 54.1438 40.068 54.8853 39.6892C55.6365 39.3057 55.9952 38.6599 55.9967 37.814C56.0024 34.569 55.9993 31.324 55.9978 28.0791V28.078Z" fill="white"/>
</svg>
